<svg width="40" height="40" viewBox="0 0 40 40" fill="none" xmlns="http://www.w3.org/2000/svg">
<path fill-rule="evenodd" clip-rule="evenodd" d="M17.5708 0H22.429V10.7908C32.0185 11.5073 39.5345 16.4114 40 22.4525V27.414H39.9964C39.9988 27.4929 40 27.5721 40 27.6514C40 34.4713 31.0457 40 20 40C8.9543 40 0 34.4713 0 27.6514C0 27.5721 0.00121111 27.4929 0.00362253 27.414H0V22.4525C0.465534 16.4114 7.98135 11.5074 17.5708 10.7908V0ZM17.5708 13.5894C10.1584 14.3093 4.48926 18.2706 4.48926 23.0495C4.48926 28.3386 11.4337 32.6263 20 32.6263C28.5664 32.6263 35.5108 28.3386 35.5108 23.0495C35.5108 18.2705 29.8415 14.3092 22.429 13.5894V18.9893H28.4961L19.9996 29.22L11.5034 18.9893H17.5708V13.5894Z" fill="#D9D9D9"/>
</svg>
