<svg class="Icons_icon__IQ7We DARK" width="32" height="32" viewBox="0 0 32 32" fill="none" xmlns="http://www.w3.org/2000/svg"><path d="M13.1 13.424C12.6542 13.4606 12.2385 13.6636 11.9354 13.9927C11.6323 14.3217 11.4641 14.7526 11.4641 15.2C11.4641 15.6473 11.6323 16.0782 11.9354 16.4073C12.2385 16.7363 12.6542 16.9393 13.1 16.976C13.3244 16.9677 13.5449 16.9152 13.7488 16.8213C13.9527 16.7274 14.136 16.594 14.2881 16.4289C14.4402 16.2638 14.5581 16.0702 14.635 15.8592C14.7119 15.6483 14.7462 15.4242 14.736 15.2C14.747 14.9755 14.7132 14.7511 14.6367 14.5398C14.5601 14.3285 14.4422 14.1346 14.29 13.9693C14.1377 13.804 13.9541 13.6707 13.7498 13.5771C13.5455 13.4834 13.3246 13.4314 13.1 13.424ZM18.94 13.424C18.5825 13.3946 18.2245 13.4737 17.9128 13.6511C17.601 13.8285 17.3501 14.0958 17.1927 14.4181C17.0353 14.7404 16.9789 15.1027 17.0307 15.4576C17.0826 15.8125 17.2403 16.1435 17.4833 16.4073C17.7263 16.6711 18.0433 16.8555 18.3928 16.9362C18.7422 17.017 19.1079 16.9904 19.442 16.86C19.7762 16.7295 20.0631 16.5013 20.2655 16.2051C20.4678 15.909 20.576 15.5586 20.576 15.2C20.5862 14.976 20.552 14.7523 20.4754 14.5416C20.3987 14.3309 20.2812 14.1375 20.1295 13.9724C19.9778 13.8073 19.795 13.6739 19.5915 13.5798C19.3881 13.4857 19.168 13.4327 18.944 13.424H18.94Z" fill="white"></path><path d="M26.72 0H5.28002C4.8479 0.00104852 4.42022 0.0872668 4.02144 0.253725C3.62266 0.420182 3.26061 0.663614 2.95598 0.970101C2.65135 1.27659 2.41012 1.64012 2.24609 2.0399C2.08206 2.43968 1.99844 2.86788 2.00002 3.3V24.928C1.99844 25.3601 2.08206 25.7883 2.24609 26.1881C2.41012 26.5879 2.65135 26.9514 2.95598 27.2579C3.26061 27.5644 3.62266 27.8078 4.02144 27.9743C4.42022 28.1407 4.8479 28.227 5.28002 28.228H23.424L22.576 25.268L24.624 27.168L26.56 28.96L30 32V3.3C30.0016 2.86788 29.918 2.43968 29.754 2.0399C29.5899 1.64012 29.3487 1.27659 29.0441 0.970101C28.7394 0.663614 28.3774 0.420182 27.9786 0.253725C27.5798 0.0872668 27.1521 0.00104852 26.72 0ZM20.544 20.9C20.544 20.9 19.968 20.212 19.488 19.6C20.6487 19.3288 21.6759 18.6558 22.388 17.7C21.8123 18.0831 21.195 18.3998 20.548 18.644C19.8037 18.9617 19.0252 19.1926 18.228 19.332C16.8577 19.5843 15.4524 19.5789 14.084 19.316C13.2807 19.1588 12.4934 18.9285 11.732 18.628C11.0891 18.3787 10.4749 18.0609 9.90002 17.68C10.5847 18.6165 11.5751 19.2843 12.7 19.568C12.22 20.176 11.628 20.896 11.628 20.896C10.6776 20.9217 9.7354 20.7133 8.88443 20.2892C8.03345 19.8651 7.29979 19.2383 6.74802 18.464C6.79871 15.2207 7.58514 12.0311 9.04802 9.136C10.3377 8.1232 11.9102 7.53614 13.548 7.456L13.708 7.648C12.1684 8.02902 10.7317 8.74466 9.50002 9.744C9.50002 9.744 9.85202 9.552 10.444 9.28C11.5954 8.7546 12.8225 8.41441 14.08 8.272C14.1696 8.25346 14.2606 8.24275 14.352 8.24C15.4242 8.1003 16.5093 8.08956 17.584 8.208C19.2742 8.40104 20.9102 8.92284 22.4 9.744C21.2308 8.79227 19.8729 8.09966 18.416 7.712L18.64 7.456C20.2779 7.53614 21.8504 8.1232 23.14 9.136C24.6029 12.0311 25.3893 15.2207 25.44 18.464C24.8842 19.2382 24.1475 19.8649 23.2942 20.2894C22.4409 20.714 21.4968 20.9236 20.544 20.9Z" fill="white"></path></svg>