<svg class="Icons_icon__IQ7We DARK" width="32" height="32" viewBox="0 0 32 32" fill="none" xmlns="http://www.w3.org/2000/svg"><g clip-path="url(#clip0_1463_1575)"><path fill-rule="evenodd" clip-rule="evenodd" d="M16 0.400391C7.2 0.400391 0 7.60039 0 16.4004C0 23.4671 4.53333 29.4671 10.9333 31.6004C11.7333 31.7337 12 31.2004 12 30.8004C12 30.4004 12 29.4671 12 28.1337C7.6 29.0671 6.66667 26.0004 6.66667 26.0004C6 24.1337 4.93333 23.6004 4.93333 23.6004C3.33333 22.6671 4.93333 22.6671 4.93333 22.6671C6.53333 22.8004 7.33333 24.2671 7.33333 24.2671C8.8 26.6671 11.0667 26.0004 12 25.6004C12.1333 24.5337 12.5333 23.8671 13.0667 23.4671C9.46667 23.0671 5.73333 21.7337 5.73333 15.6004C5.73333 13.8671 6.4 12.4004 7.33333 11.3337C7.33333 10.8004 6.66667 9.20039 7.6 7.06706C7.6 7.06706 8.93333 6.66706 12 8.66706C13.3333 8.26706 14.6667 8.13372 16 8.13372C17.3333 8.13372 18.6667 8.26706 20 8.66706C23.0667 6.53372 24.4 7.06706 24.4 7.06706C25.3333 9.33372 24.6667 10.9337 24.5333 11.3337C25.6 12.4004 26.1333 13.8671 26.1333 15.6004C26.1333 21.7337 22.4 23.0671 18.8 23.4671C19.3333 24.0004 19.8667 24.9337 19.8667 26.4004C19.8667 28.5337 19.8667 30.2671 19.8667 30.8004C19.8667 31.2004 20.1333 31.7337 20.9333 31.6004C27.3333 29.4671 31.8667 23.4671 31.8667 16.4004C32 7.60039 24.8 0.400391 16 0.400391Z" fill="white"></path></g><defs><clipPath id="clip0_1463_1575"><rect width="32" height="32" fill="white"></rect></clipPath></defs></svg>