<svg width="32" height="32" viewBox="0 0 32 32" fill="none" xmlns="http://www.w3.org/2000/svg">
<path fill-rule="evenodd" clip-rule="evenodd" d="M20.2268 8.24734C19.0426 8.24734 18.0825 9.20738 18.0825 10.3916V13.9175H21.6084C22.7926 13.9175 23.7527 12.9574 23.7527 11.7732V8.24734H20.2268ZM23.7941 8.20595V2.51689e-07L20.2268 0C14.6697 1.00676e-06 10.1313 4.36213 9.84911 9.84911C4.36213 10.1313 -2.51689e-07 14.6697 2.51689e-07 20.2268L0 23.7941H8.20595V32H11.7732C17.3303 32 21.8687 27.6379 22.1509 22.1509C27.6379 21.8687 32 17.3303 32 11.7732V8.20595H23.7941ZM13.9175 18.0825L13.9175 21.6084C13.9175 22.7926 12.9574 23.7527 11.7732 23.7527H8.24734V20.2268C8.24734 19.0426 9.20738 18.0825 10.3916 18.0825H13.9175Z" fill="white"/>
</svg>
